<svg xmlns="http://www.w3.org/2000/svg" width="634" height="264" fill="none" viewBox="0 0 634 264">
  <path fill="#E0E9F8" d="M602.789 129.2c-6.028 0-11.626 1.846-16.362 4.986-1.046-16.189-14.516-28.992-31-28.992a30.834 30.834 0 00-14.455 3.57v-.8c0-33.115-26.88-60.014-59.971-60.014-16.3 0-31.001 6.463-41.826 16.989a14.447 14.447 0 00-15.808-11.387c-6.889.738-12.364 6.524-12.794 13.418-.554 8.433 6.151 15.388 14.454 15.388.616 0 1.169-.061 1.723-.123-3.691 7.756-5.721 16.496-5.721 25.668v.738L317.079 82.42l-.123.061-.184-.061v.061l-103.951 26.222v-.739c0-9.171-2.091-17.85-5.72-25.667.553.061 1.169.123 1.722.123 8.304 0 14.947-6.956 14.455-15.389-.431-6.955-5.905-12.68-12.794-13.418-7.689-.862-14.27 4.309-15.808 11.387-10.826-10.525-25.588-16.988-41.826-16.988-33.092 0-59.971 26.898-59.971 60.014v.8a30.821 30.821 0 00-14.455-3.57c-16.484 0-29.893 12.803-31 28.991-4.737-3.139-10.396-4.986-16.362-4.986C13.901 129.2 0 144.095 0 162.438v1.354C0 219.128 44.84 264 100.137 264H542.571c50.438 0 91.28-40.871 91.28-91.344v-10.218c0-18.343-13.901-33.238-31.062-33.238z"/>
  <path fill="#0E538C" d="M337.845 32.63c.491-5.822 1.966-13.605 0-18.447-1.966-4.842-5.837-8.274-9.769-9.745-3.87-1.471-9.277-4.352-14.13-3.862-4.854.49-12.165 5.333-14.622 7.784-2.458 2.452-5.837 11.155-5.837 14.587 0 3.371 2.949 7.784 3.871 10.665.921 2.88 0 10.174 6.328 13.116 6.328 2.941 7.311 5.332 15.605 3.37 8.294-1.96 16.096-6.312 16.588-8.274.491-1.96 1.966-9.193 1.966-9.193z"/>
  <path fill="#C5D6F1" d="M317.079 43.48c25.496 0 46.385 20.838 46.385 46.273v76.857c0 3.187-2.642 5.823-5.837 5.823h-81.096c-3.195 0-5.836-2.636-5.836-5.823V89.753c0-25.497 20.888-46.274 46.384-46.274z"/>
  <path fill="#C5D6F1" d="M164.716 136.333h304.725v8.581H164.716zM186.649 144.914H447.57v118.964H186.649z"/>
  <path fill="#FFBE55" d="M369.546 109.366l-7.434-39.348c-1.536-11.4-39.872-20.9-39.872-20.9h-10.813s-38.521 10.174-40.057 21.574l-9.584 39.164c-2.396 17.774 12.41 16.487 28.384 21.697l21.318 6.987h10.813l21.319-6.987c15.912-5.21 28.383-4.413 25.926-22.187z"/>
  <path fill="#2A94F4" d="M359.716 79.272v.307l-1.413 60.064a4.34 4.34 0 01-2.765.98h-78.27c-.246 0-.491 0-.676-.061l-1.597-61.29h84.721z"/>
  <path fill="#FCD2B1" d="M305.959 42.008l3.256 16.242 8.048 14.035 6.697-14.035 2.642-16.487-20.643.245z"/>
  <path fill="#FFE3CA" d="M335.51 26.502c0 17.652-3.072 24.577-14.13 28.622-2.826 1.042-5.837.92-8.724.062-10.875-3.187-14.008-11.216-14.008-28.684 0-11.216 6.574-14.832 16.772-14.832 10.199 0 20.09 3.616 20.09 14.832z"/>
  <path fill="#FFE3CA" d="M299.747 39.872c2.025-.208 3.365-3.297 2.993-6.9-.372-3.603-2.315-6.355-4.34-6.146-2.025.208-3.365 3.297-2.993 6.9.372 3.603 2.315 6.354 4.34 6.146zM339.275 33.772c.372-3.603-.968-6.692-2.993-6.9-2.025-.209-3.968 2.543-4.341 6.146-.372 3.603.968 6.692 2.993 6.9 2.025.208 3.969-2.544 4.341-6.146z"/>
  <path fill="#99B9EE" d="M362.112 83.44l-2.212 52.832a4.335 4.335 0 01-1.597 3.371 4.34 4.34 0 01-2.765.981h-78.27c-.245 0-.491 0-.676-.062-2.088-.306-3.686-2.145-3.686-4.29l-2.211-52.832c0-2.39 1.966-4.351 4.362-4.351h82.693c.369 0 .737.06 1.106.122.307.061.614.184.86.307 1.413.796 2.396 2.267 2.396 3.922z"/>
  <path fill="#E0E9F8" d="M316.28 118.069c4.547 0 8.233-3.677 8.233-8.213s-3.686-8.213-8.233-8.213c-4.546 0-8.232 3.677-8.232 8.213s3.686 8.213 8.232 8.213z"/>
  <path fill="#99B9EE" d="M226.03 138.54h-6.021c-3.072 0-5.59-2.513-5.59-5.578v-17.957h17.202v17.957c0 3.065-2.519 5.578-5.591 5.578z"/>
  <path fill="#99B9EE" d="M223.696 112.921c-.308 0-.553-.123-.799-.246-.246-.183-.43-.429-.614-.674a3.336 3.336 0 01-.492-1.777c0-.674.369-1.41.799-1.839.43-.49.798-.797.983-1.042.245-.245.307-.368.43-.674.061-.245.123-.613.123-.981 0-.735-.308-1.654-.553-2.696.491.183.983.49 1.413.858.43.367.798.858.983 1.409.245.552.368 1.165.307 1.839 0 .368-.123.674-.307 1.042-.185.306-.369.613-.615.858-.43.49-.86.735-1.106.981-.245.245-.43.367-.552.613a2.599 2.599 0 00-.246 1.041c-.062.429-.062.859.246 1.288z" opacity=".59"/>
  <path fill="#99B9EE" d="M229.593 129.101v-1.471c2.212 0 3.748-.674 4.362-1.961.492-.981.369-2.145-.368-3.065-.86-1.103-2.273-1.593-3.871-1.287l-.245-1.409c2.15-.368 4.177.306 5.345 1.838 1.044 1.349 1.228 3.126.491 4.597-.553 1.042-1.966 2.758-5.714 2.758z"/>
  <path fill="#2A94F4" d="M403.152 111.756l-3.502.674-3.441-18.816 1.106-3.86L399.711 93l3.441 18.755z"/>
  <path fill="#DCF2FF" d="M414.702 115.74l-3.441-.858 4.547-18.51 2.641-3.125.861 3.984-4.608 18.509z"/>
  <path fill="#80D5FF" d="M413.289 113.656l-3.564-.429 2.212-19 2.212-3.37 1.352 3.8-2.212 18.999z"/>
  <path fill="#99B9EE" d="M418.695 101.643l-.246 6.252-.614 14.587-.614 16.058h-20.09l-.799-16.058-.798-14.587-.308-6.252h23.469z"/>
  <path fill="#C5D6F1" d="M418.449 107.895l-.614 14.587h-21.503l-.798-14.587h22.915z"/>
  <path fill="#0E538C" d="M296.867 23.866c-1.168-.796.122-4.045-.185-5.516-.368-1.593.492-3.187 1.475-4.413 3.072-3.554 7.618-4.964 12.041-5.27 4.424-.307 8.847.245 13.209-.184 4.424-.43 8.97-2.084 11.796-5.884.246-.307 1.843-.368 2.212.122 1.351 1.84 2.703 3.739 3.563 5.945.86 2.207 1.044 4.781.123 6.987-1.229 2.82-4.854 4.904-7.495 5.884 0-.122-24.206 10.604-36.739 2.33z"/>
  <path fill="#0E538C" d="M329.551 20.005l5.345 11.155 2.949-13.116-8.294 1.961zM302.764 22.395c-.983.981-2.457 11.155-2.457 11.155L296.375 21.6l6.389.796z"/>
  <path fill="#99B9EE" d="M186.772 145.098h260.675v4.168H186.772z"/>
  <g>
    <path fill="#C5D6F1" d="M538.302 263.695c-10.146 0-14.442-8.001-16.184-16.43-1.93-9.529-.498-19.729-.498-19.729h33.364s.062.367.125 1.1c.56 6.046 2.614 35.059-16.807 35.059z"/>
    <path fill="#D4DFF3" d="M554.984 227.597c0 .733-7.47 1.283-16.682 1.283-9.213 0-16.682-.55-16.682-1.283 0-.733 7.469-1.283 16.682-1.283 9.212 0 16.682.55 16.682 1.283z"/>
    <path fill="#C5D5F0" d="M496.783 136.895s17.554 26.264 28.136 42.266c10.519 16.003 13.321 19.362 14.566 24.554 1.244 5.192 2.365 24.249 2.365 24.249h1.369s.872-16.125-.747-21.439c-1.618-5.314-.996-7.391-.249-12.949s1.743-14.415-3.983-20.584c-5.727-6.169-4.233-12.215-6.225-16.247-1.992-4.092-17.554-8.978-19.608-13.193-1.93-4.214-10.707-6.779-15.624-6.657z"/>
    <path fill="#fff" d="M496.783 136.895s5.54 6.169 9.275 8.245c3.797 2.077 5.54.245 8.403 5.314 2.863 5.07 2.988 7.269 5.665 9.834 2.614 2.565 5.789 2.688 6.038 8.368.249 5.68-1.245 10.505-1.245 10.505s-27.016-40.922-28.136-42.266z" opacity=".26"/>
    <path fill="#C5D5F0" d="M537.742 227.964h-1.245s-.374-8.368-3.797-12.46c-2.179-2.627-11.454-5.62-20.667-9.162-5.042-1.955-10.084-4.093-13.881-6.475-10.706-6.657-20.853-28.096-21.724-31.944-.311-1.344-.436-2.138-.436-2.687 0-1.039.56-1.161 1.432-2.199.436-.489 1.743-.306 3.299.122a19.13 19.13 0 0110.893 8.551c2.241 3.787 5.789 8.49 10.147 9.65 7.532 1.955 6.909 3.177 9.71 10.75 2.801 7.513 9.773 8.735 18.55 17.591 8.839 8.918 7.719 18.263 7.719 18.263z"/>
    <path fill="#fff" d="M512.033 206.342c-5.042-1.955-10.084-4.093-13.881-6.475-10.706-6.657-20.853-28.096-21.724-31.944-.311-1.344-.436-2.138-.436-2.688 0 .245.498 3.665 6.1 5.925 5.789 2.321 6.91 2.321 7.657 5.925.747 3.542 1.369 7.39 4.419 8.123 2.988.733 4.918-2.565 7.283 2.81 2.366 5.436 3.548 7.268 5.727 8.001 2.179.733 3.859-.366 4.357 3.848.249 2.565.436 4.948.498 6.475z" opacity=".26"/>
    <path fill="#C5D6F1" d="M538.302 263.695c-10.146 0-14.442-8.001-16.184-16.43 9.959-3.726 22.533-9.651 32.928-18.63.623 6.047 2.677 35.06-16.744 35.06z"/>
  </g>
  <g>
    <path fill="#C5D6F1" d="M105.08 263.691c12.062 0 17.171-9.697 19.14-19.951 2.277-11.551.615-23.905.615-23.905H85.324s-.062.495-.123 1.298c-.8 7.35-3.2 42.558 19.879 42.558z"/>
    <path fill="#E0E9F8" d="M85.262 219.897c0 .865 8.862 1.545 19.756 1.545 10.893 0 19.756-.68 19.756-1.545 0-.864-8.863-1.544-19.756-1.544-10.894 0-19.756.68-19.756 1.544z"/>
    <path fill="#C5D5F0" d="M51.535 109.949S72.4 141.76 84.893 161.217c12.493 19.457 15.755 23.472 17.294 29.711 1.477 6.3 2.831 29.463 2.831 29.463h.923s-.308-19.642-1.477-26.251c-1.108-6.424.062-8.71.985-15.442.923-6.733 2.092-17.481-4.678-24.955-6.77-7.474-4.985-14.763-7.385-19.704-2.4-4.942-20.864-10.933-23.203-15.998-2.4-5.127-12.862-8.277-18.648-8.092z"/>
    <path fill="#fff" d="M51.535 109.948s6.524 7.474 11.017 10.007c4.493 2.532 6.524.309 9.97 6.424 3.447 6.115 3.57 8.833 6.709 11.983 3.138 3.15 6.831 3.274 7.139 10.13.307 6.856-1.477 12.724-1.477 12.724s-32.004-49.662-33.358-51.268z" opacity=".26"/>
    <path fill="#C5D5F0" d="M103.356 220.329h-.923s-.308-6.362-2.77-9.45c-1.6-1.977-8.493-4.262-15.324-6.98-3.754-1.482-7.509-3.15-10.278-4.941-7.94-5.065-15.51-21.372-16.125-24.276-.246-.988-.308-1.606-.308-2.038 0-.803.431-.926 1.047-1.668.307-.37 1.292-.247 2.462.124 3.446 1.05 6.277 3.397 8.062 6.486 1.662 2.903 4.308 6.485 7.508 7.35 5.6 1.483 5.109 2.409 7.201 8.154 2.031 5.682 7.262 6.671 13.786 13.403 6.462 6.733 5.662 13.836 5.662 13.836z"/>
    <path fill="#fff" d="M84.277 203.961c-3.754-1.483-7.508-3.15-10.278-4.942-7.939-5.065-15.51-21.372-16.124-24.275-.247-.988-.308-1.606-.308-2.038 0 .185.369 2.78 4.492 4.509 4.309 1.791 5.109 1.791 5.663 4.509.554 2.718 1.046 5.621 3.262 6.177 2.215.556 3.63-1.977 5.416 2.162 1.784 4.138 2.646 5.497 4.246 6.053 1.6.556 2.893-.309 3.2 2.903.247 1.915.37 3.768.431 4.942z" opacity=".26"/>
    <path fill="#C5D5F0" d="M110.188 220.33h1.108s2.154-39.409 5.169-43.053c1.908-2.347 8.247-6.609 16.371-9.821 4.431-1.792 8.863-3.706 12.186-5.807 9.416-5.991 18.34-25.263 19.079-28.722.246-1.174.369-1.915.369-2.409 0-.927-.492-1.05-1.292-1.977-.369-.432-1.539-.308-2.893.124-4.062 1.235-7.447 4.015-9.601 7.721-1.969 3.397-5.108 7.659-8.924 8.709-6.647 1.792-6.093 2.904-8.493 9.636-2.462 6.795-8.616 7.845-16.309 15.875-7.755 7.906-6.77 49.724-6.77 49.724z"/>
    <path fill="#fff" d="M132.775 167.517c4.431-1.791 8.862-3.706 12.186-5.806 9.416-5.991 18.34-25.263 19.078-28.722.247-1.174.37-1.915.37-2.409 0 .247-.493 3.274-5.355 5.312-5.046 2.1-6.093 2.1-6.708 5.312-.677 3.212-1.231 6.671-3.877 7.289-2.647.679-4.309-2.347-6.401 2.532-2.093 4.88-3.077 6.548-5.047 7.227-1.908.68-3.385-.309-3.816 3.459-.184 2.224-.369 4.448-.43 5.806z" opacity=".26"/>
    <path fill="#C5D6F1" d="M105.08 263.691c12.062 0 17.171-9.697 19.14-19.951-11.817-4.509-26.71-11.736-39.081-22.607-.739 7.35-3.139 42.558 19.941 42.558z"/>
  </g>
</svg>
