<svg xmlns="http://www.w3.org/2000/svg" width="605" height="502" fill="none" viewBox="0 0 605 502">
  <path fill="#E0E9F8" d="M351.052 66.669c-38.735-1.347-75.627-13.848-110.854-27.529-35.228-13.68-70.12-28.84-107.927-36.087-24.317-4.662-52.13-5.32-71.718 7.714C41.693 23.335 35.6 44.97 32.327 65.065c-2.465 15.117-3.914 31.03 2.837 45.177 4.692 9.827 13.012 18.085 18.77 27.499 20.03 32.747 5.87 73.131-15.831 105.106-10.175 15.003-21.995 29.324-29.853 45.279-7.859 15.955-11.491 34.261-4.615 50.551 6.811 16.158 23.048 28.271 40.638 36.799 35.725 17.325 77.805 22.28 118.868 25.087 90.87 6.218 182.219 3.525 273.328.832 33.72-.999 67.583-2.011 100.751-7.223 18.422-2.897 37.436-7.487 50.813-18.582 16.973-14.082 21.181-37.924 9.803-55.584-19.08-29.618-71.819-36.973-85.172-68.757-7.338-17.498.198-36.984 10.869-53.214 22.886-34.806 61.244-65.345 63.261-105.13 1.389-27.325-17.051-54.693-45.564-67.625-29.883-13.55-71.329-11.85-93.365 10.586-22.713 23.1-62.609 31.988-96.813 30.803zM289.905 491.502c100.429 0 181.844-10.925 181.844-24.401 0-13.476-81.415-24.401-181.844-24.401-100.43 0-181.844 10.925-181.844 24.401 0 13.476 81.414 24.401 181.844 24.401z"/>
  <rect width="5.81" height="42.992" x="384.603" y="174.292" fill="#99B9EE" rx="2.29"/>
  <rect width="2.324" height="13.943" x="209.15" y="139.433" fill="#3A3768" rx="1.162"/>
  <rect width="2.324" height="24.401" x="209.15" y="164.996" fill="#3A3768" rx="1.162"/>
  <rect width="2.324" height="25.563" x="209.15" y="198.692" fill="#3A3768" rx="1.162"/>
  <rect width="177.777" height="359.04" x="209.15" y="91.794" fill="#99B9EE" rx="12"/>
  <path fill="#F7F7F7" d="M362.363 101.089h-20.375v2.447c0 3.075-1.225 6.025-3.404 8.199a11.62 11.62 0 01-8.216 3.394H265.57a11.62 11.62 0 01-8.216-3.394 11.583 11.583 0 01-3.404-8.199v-2.447h-19.074c-7.791 0-14.107 6.305-14.107 14.082v313.447c0 3.735 1.486 7.317 4.132 9.957a14.117 14.117 0 009.975 4.125h127.487c7.791 0 14.106-6.305 14.106-14.082V115.195a14.067 14.067 0 00-4.123-9.973 14.119 14.119 0 00-9.983-4.133z"/>
  <rect width="24.401" height="5.81" x="281.19" y="102.251" fill="#E6E8EC" rx="2.905"/>
  <path fill="#E6E8EC" d="M311.982 108.061a2.905 2.905 0 10-.001-5.81 2.905 2.905 0 00.001 5.81z"/>
  <path fill="#99B9EE" d="M448.733 75.593s-49.759-3.071-43.897 32.598c0 0-1.182 6.306 4.42 9.166 0 0 .089-2.642 5.106-1.742 1.787.303 3.601.393 5.408.266a11.127 11.127 0 006.607-2.762s13.988-5.913 19.425-29.298c0 0 4.025-5.102 3.865-6.414l-8.398 3.67s2.872 6.196.591 11.347c0 0-.272-11.124-1.885-10.882-.325.048-4.361 2.146-4.361 2.146s4.934 10.792 1.211 18.639c0 0 1.413-13.3-2.754-17.859l-5.909 3.53s5.767 11.149 1.855 20.248c0 0 1.005-13.954-3.102-19.389l-5.355 4.274s5.42 10.985 2.116 18.53c0 0-.431-16.238-3.274-17.466 0 0-4.686 4.233-5.401 5.962 0 0 3.711 7.98 1.406 12.188 0 0-1.412-10.822-2.571-10.883 0 0-4.668 7.171-5.153 12.092 0 0 .201-7.309 4.025-12.769 0 0-4.515.792-7.151 3.785 0 0 .727-5.066 8.303-5.514 0 0 3.859-5.44 4.887-5.767 0 0-7.529-.647-12.097 1.426 0 0 4.019-4.782 13.48-2.605l5.289-4.42s-9.916-1.384-14.124.145c0 0 4.84-4.232 15.549-1.148l5.756-3.519s-8.457-1.862-13.492-1.209c0 0 5.319-2.932 15.182.248l4.137-1.892s-6.194-1.246-8.008-1.445c-1.814-.2-1.909-.708-1.909-.708a21.034 21.034 0 0111.636 1.324s8.735-3.33 8.587-3.893zM396.948 59.288s-22.941-1.361-20.261 14.49c0 0-.537 2.8 2.041 4.072 0 0 .042-1.189 2.36-.778.824.136 1.661.176 2.494.118a5.205 5.205 0 003.048-1.236s6.46-2.628 8.971-13.02c0 0 1.854-2.266 1.781-2.849l-3.875 1.63s1.322 2.752.283 5.041c0 0-.126-4.94-.869-4.828-.151 0-2.016.958-2.016.958s2.282 4.798.561 8.282c0 0 .652-5.91-1.274-7.938l-2.729 1.594s2.663 4.952.858 8.995c0 0 .465-6.2-1.431-8.615l-2.469 1.903s2.499 4.881.978 8.234c0 0-.205-7.217-1.515-7.764 0 0-2.162 1.878-2.494 2.651 0 0 1.715 3.568.652 5.417 0 0-.652-4.81-1.207-4.834 0 0-2.155 3.187-2.379 5.35a11.483 11.483 0 011.86-5.671 6.533 6.533 0 00-3.303 1.682s.338-2.253 3.834-2.45c0 0 1.811-2.419 2.258-2.568 0 0-3.478-.285-5.585.637 0 0 1.854-2.123 6.219-1.16l2.414-1.962s-4.582-.594-6.52.066c0 0 2.234-1.88 7.178-.512l2.657-1.563s-3.906-.827-6.23-.53c0 0 2.457-1.302 7.009.107l1.901-.838s-2.861-.553-3.7-.642c-.84-.09-.882-.315-.882-.315a10.036 10.036 0 015.373.594s4.081-1.498 4.009-1.748z"/>
  <path fill="#E0E9F8" d="M517.064 464.777c8.984 0 16.268-1.301 16.268-2.905 0-1.604-7.284-2.905-16.268-2.905-8.984 0-16.267 1.301-16.267 2.905 0 1.604 7.283 2.905 16.267 2.905zM53.45 486.854c8.984 0 16.267-1.3 16.267-2.905 0-1.604-7.283-2.905-16.268-2.905-8.984 0-16.267 1.301-16.267 2.905 0 1.605 7.283 2.905 16.267 2.905zM116.194 501.959c8.984 0 16.267-1.3 16.267-2.905 0-1.604-7.283-2.904-16.267-2.904-8.984 0-16.267 1.3-16.267 2.904 0 1.605 7.283 2.905 16.267 2.905z"/>
  <path fill="#99B9EE" d="M480.463 494.987c13.155 0 23.82-1.82 23.82-4.066 0-2.246-10.665-4.067-23.82-4.067-13.155 0-23.82 1.821-23.82 4.067 0 2.246 10.665 4.066 23.82 4.066z"/>
  <path fill="#99B9EE" d="M491.479 485.364a7.158 7.158 0 002.271-3.528c.296-1.395-.285-3.046-1.589-3.588-1.459-.573-3.019.469-4.199 1.517-1.18 1.048-2.538 2.248-4.086 2.023 1.621-1.506 2.352-3.775 1.928-5.977a2.553 2.553 0 00-.54-1.219c-.806-.889-2.277-.512-3.244.195-3.083 2.224-3.943 6.531-3.961 10.4-.314-1.395-.047-2.851-.059-4.265-.012-1.413-.385-3.046-1.566-3.795a4.602 4.602 0 00-2.371-.573c-1.388-.055-2.93.091-3.879 1.133-1.186 1.292-.865 3.461.155 4.874 1.019 1.414 2.579 2.322 4.014 3.302a9.014 9.014 0 012.864 2.809c.089.16.161.33.214.506h8.663a24.36 24.36 0 005.385-3.814zM117.018 432.243s3.258 4.478-1.498 11.212c-4.756 6.733-8.678 12.458-7.108 16.675 0 0 7.179-12.552 13.031-12.726 5.852-.174 2.002-7.612-4.425-15.161z"/>
  <path fill="#000" d="M116.926 432.243c.288.433.514.907.671 1.407 5.763 7.034 8.836 13.601 3.295 13.762-5.158.156-11.346 9.742-12.831 12.164.047.186.107.367.173.554 0 0 7.261-12.543 13.179-12.718 5.919-.174 2.013-7.625-4.487-15.169z" opacity=".1"/>
  <path fill="#FFD037" d="M124.328 437.801c0 1.422-.258 2.575-.581 2.575-.323 0-.581-1.153-.581-2.575 0-1.423.323-.754.646-.754.322 0 .516-.669.516.754z"/>
  <path fill="#FFD037" d="M125.826 439.227c-1.364.817-2.555 1.31-2.653 1.101-.099-.209.915-1.04 2.278-1.858 1.364-.817.829-.223.927 0 .099.223.811-.06-.552.757z"/>
  <path fill="#99B9EE" d="M100.268 432.243s-3.257 4.478 1.498 11.212c4.754 6.733 8.674 12.458 7.105 16.675 0 0-7.17-12.552-13.026-12.726-5.856-.174-2.013-7.612 4.423-15.161z"/>
  <path fill="#99B9EE" d="M100.362 432.243a5.682 5.682 0 00-.676 1.407c-5.76 7.034-8.825 13.601-3.293 13.762 5.16.156 11.345 9.742 12.83 12.164-.05.188-.11.373-.18.554 0 0-7.25-12.543-13.171-12.718-5.921-.174-2.018-7.625 4.49-15.169z" opacity=".1"/>
  <path fill="#FFD037" d="M94.117 437.801c0 1.422.266 2.575.586 2.575.32 0 .576-1.153.576-2.575 0-1.423-.32-.754-.64-.754s-.522-.669-.522.754z"/>
  <path fill="#FFD037" d="M92.623 439.227c1.361.817 2.545 1.31 2.649 1.101.104-.209-.92-1.04-2.28-1.858-1.362-.817-.823-.223-.927 0-.104.223-.803-.06.558.757z"/>
  <path fill="#99B9EE" d="M95.28 458.145s9.054-.289 11.789-2.265c2.735-1.976 13.929-4.348 14.601-1.171.672 3.177 13.611 15.791 3.389 15.875-10.221.084-23.755-1.622-26.479-3.31-2.723-1.688-3.3-9.129-3.3-9.129z"/>
  <path fill="#000" d="M125.242 469.461c-10.224.086-23.76-1.666-26.484-3.4-2.07-1.327-2.9-6.071-3.178-8.256h-.3s.589 7.639 3.295 9.379c2.706 1.74 16.261 3.486 26.484 3.4 2.948 0 3.968-1.123 3.915-2.752-.413.999-1.539 1.61-3.732 1.629z" opacity=".2"/>
  <path fill="url(#paint0_linear)" d="M168.482 265.354a.92.92 0 001.162.162 3.786 3.786 0 01-1.162-.162z"/>
  <path fill="url(#paint1_linear)" fill-rule="evenodd" d="M239.996 147.193c-1.264-.37-3.063-.974-5.239-1.733a27.956 27.956 0 004.856-9.878l-.186.071c.03-.11.061-.22.093-.329.031-.109.063-.218.093-.328-4.161 1.709-8.771-1.195-11.702-4.906-1.273-1.612-2.37-3.395-3.466-5.177-1.428-2.322-2.855-4.641-4.669-6.578a37.394 37.394 0 00-4.311-3.747c-.947-.741-1.972-1.512-3.129-1.548-1.101-.032-2.063.595-3.037 1.23-.679.443-1.365.89-2.106 1.118a6.99 6.99 0 01-3.597-.131c-1.782-.414-3.539-.961-5.295-1.507-2.834-.881-5.663-1.761-8.584-2.079a16.073 16.073 0 00-7.529.855c-1.549.594-2.547 1.565-3.577 2.566-.565.549-1.139 1.107-1.818 1.617-1.676 1.261-4.69 1.483-7.08 1.659-.577.043-1.118.083-1.595.134-2.972.34-5.966.466-8.956.376a20.373 20.373 0 00-5.156.192c-3.561.788-6.42 3.645-9.088 6.394a4.779 4.779 0 00-1.505 2.39 3.156 3.156 0 000 .789 5.126 5.126 0 00.36 2.092 27.693 27.693 0 003.417 6.968c.232.335.472.667.712.998.889 1.227 1.78 2.458 2.285 3.926.295.918.45 1.875.462 2.839a21.734 21.734 0 01-.318 3.054 38.725 38.725 0 01-2.308 8.121l-.206.502c-.504 1.22-1.011 2.448-1.143 3.783a7.658 7.658 0 000 .909c-.099 2.587 1.288 4.776 2.699 7.003 1.141 1.8 2.297 3.626 2.697 5.708.071.385.115.774.132 1.165-.102 2.904-1.739 5.743-4.149 6.867.147.058.298.111.449.164l.193.069a6.95 6.95 0 01-.642.358c.438.168.887.311 1.343.442a31.461 31.461 0 00-6.84 8.475c-8.069 15.256-63.066 45.185-63.066 45.185s.312.173.815.472c-.204.125-.42.269-.66.43-4.76 3.203-15.934 12.55-5.832 24.335 0 0 7.883-12.58 13.404-17.928.252-.24.492-.461.726-.67.249.382.327.85.215 1.291l36.167-20.54s12.853-9.095 16.438-11.151c.111-.063.237-.137.377-.218l.001-.001c1.427-.829 4.342-2.524 7.769-3.313l-.419.185a16.339 16.339 0 014.148-.597c6.403.101 13.333 4.84 15.623 23.611 3.063 25.136 1.642 29.665.659 30.287a1.682 1.682 0 01-.359-.066.482.482 0 00.096.072 1.771 1.771 0 01-.396-.072c.14.133.341.183.527.132.135.039.28.022.402-.048h.486c0 .151-.016.308-.032.465a9.248 9.248 0 00-.022.234c-.048 0-.288.138 0 .155a50.48 50.48 0 000 4.572c-3.184.179-6.361.371-9.148.544l.251-1.333.114-.597c2.44-.197 4.76-.921 5.03-2.929.599-4.398-5.395-6.747-10.461-7.039-5.066-.293-35.568 1.763-35.568 1.763s-4.574 5.976 9.928 7.834c.431.227.881.478 1.337.741 5.677 3.275 13.386 9.299 17.073 12.269l.516.413-1.655 1.332c7.76 1.774 15.26 27.8 20.241 45.081a657.386 657.386 0 002.174 7.443c4.778 15.843 15.245 15.257 23.913 12.914 8.123-2.205 9.161-26.043 9.256-29.037v-.305l14.442 17.994 1.097 1.368c.426.221.839.431 1.247.628 10.941 5.265 23.026-4.823 19.585-16.297-3.471-11.594-8.866-28.727-12.463-35.97-2.997-6.066-6.9-16.136-9.262-22.458a8.24 8.24 0 00.893-.431s-.054-.28-.15-.8l.15-.078s-3.477-18.257-3.669-31.219v-1.106c2.614-.597 4.269-.836 4.269-.836l.048-.562-.306.066 1.451-16.817s5.335-11.468 1.253-16.249a10.14 10.14 0 01-2.398-4.966c-.684-4.399 0-11.719 9.513-17.809 14.646-9.388 20.329-17.02 20.329-17.02s.312-5.605-8.657-8.247zm-29.087 11.666v-7.769c1.281-.062 2.574-.025 3.87.013 1.452.042 2.908.085 4.349-.013a20.84 20.84 0 003.969-.67l.659.46a72.373 72.373 0 01-12.847 7.979zm-38.307 124.117a166.957 166.957 0 00-3.213-2.319 53.87 53.87 0 014.496 9.042c-.042-.185-.623-2.892-1.283-6.723z" clip-rule="evenodd"/>
  <path fill="#FFBDC6" d="M192.882 275.38l-.637 3.548-.49 2.712-.891 4.964-8.641 6.206s-.779-.685-2.066-1.762c-3.541-2.991-10.984-9.081-16.45-12.35a18.204 18.204 0 00-4.521-2.137l33.696-1.181z"/>
  <path fill="#000" d="M192.882 275.38l-.637 3.447a27.137 27.137 0 01-5.702-.294l-20.162.288c-.95-.059-1.842-.13-2.674-.218a18.448 18.448 0 00-4.521-2.076l33.696-1.147z" opacity=".1"/>
  <path fill="#474463" d="M186.761 277.381s10.134 1.629 10.727-2.426c.594-4.055-5.218-6.247-10.139-6.52-4.921-.272-34.472 1.63-34.472 1.63s-5.213 6.514 13.612 7.605l20.272-.289z"/>
  <path fill="#000" d="M192.882 275.38l-.637 3.548-.49 2.712-.891 4.964-8.641 6.206s-.779-.685-2.066-1.762c-3.541-2.991-10.984-9.081-16.45-12.35a18.204 18.204 0 00-4.521-2.137l33.696-1.181z" opacity=".1"/>
  <path fill="#000" d="M192.882 275.38l-.637 3.447a27.137 27.137 0 01-5.702-.294l-20.162.288c-.95-.059-1.842-.13-2.674-.218a18.448 18.448 0 00-4.521-2.076l33.696-1.147z" opacity=".1"/>
  <path fill="#000" d="M186.768 277.385s10.14 1.622 10.722-2.444c.582-4.067-5.218-6.233-10.14-6.506-4.921-.272-34.473 1.628-34.473 1.628s-5.213 6.505 13.612 7.588l20.279-.266z" opacity=".1"/>
  <path fill="#474463" d="M155.7 134.785h53.449v62.745H155.7z"/>
  <path fill="#000" d="M155.7 134.785h53.449v62.745H155.7z" opacity=".1"/>
  <path fill="#FFBDC6" d="M92.955 242.333c-.853.223-1.945 1.077-3.16 2.317-5.226 5.363-12.713 17.949-12.713 17.949-9.571-11.815 1.023-21.151 5.535-24.359 1.098-.777 1.835-1.204 1.835-1.204l8.503 5.297z"/>
  <path fill="#B97A59" d="M193.009 153.376s2.599 18.144 11.554 22.464c8.955 4.321-11.554 12.395-11.554 12.395l-28.013-10.376s15.886-5.188 12.707-20.451l15.306-4.032zM162.672 264.923l-.631 3.536-.513 2.725-.891 4.966-8.635 6.202s-.778-.679-2.064-1.756c-3.539-2.992-10.977-9.084-16.444-12.355a18.046 18.046 0 00-4.518-2.137l33.696-1.181z"/>
  <path fill="#000" d="M162.672 264.923l-.632 3.446a27.064 27.064 0 01-5.701-.295l-20.162.289a62.453 62.453 0 01-2.68-.218 18.293 18.293 0 00-4.521-2.084l33.696-1.138z" opacity=".1"/>
  <path fill="#0B4870" d="M156.563 268.089s10.141 1.622 10.717-2.439c.576-4.06-5.213-6.238-10.141-6.51-4.928-.272-34.471 1.628-34.471 1.628s-5.219 6.504 13.614 7.593l20.281-.272z"/>
  <path fill="#000" d="M161.51 270.943l-.982 5.073-9.523 6.336s-.859-.693-2.276-1.794l12.592-9.825.189.21z" opacity=".1"/>
  <path fill="#0B4870" d="M219.596 338.014c-.402-.197-.804-.401-1.2-.598l-1.08-1.359-14.164-17.925v.311c-.096 2.994-1.116 26.714-9.07 28.905-8.489 2.335-18.729 2.922-23.397-12.854-4.667-15.775-13.198-50.248-21.956-52.296l13.03-10.662s8.626 10.07 12.142 19.709c-.132-.599-6.089-28.378-1.2-33.294h42.743s6.599 18.757 11.123 28.049c3.521 7.214 8.806 24.271 12.208 35.814 3.371 11.399-8.465 21.463-19.179 16.2z"/>
  <path fill="#000" d="M217.283 262.411c-6.594 3.858-35.543 2.287-44.961 1.659l-2.566-.183c-.276 0 .042-.154.042-.154l.264-2.625 7.02-17.633 37.587-21.544c-.761 2.269-1.013 5.742-.953 9.717.174 12.775 3.567 30.763 3.567 30.763z" opacity=".1"/>
  <path fill="#B97A59" d="M217.283 262.41c-6.551 3.859-35.311 2.288-44.668 1.66l-2.549-.178-.422-.035.464-.119 2.299-.593 4.937-19.667 37.343-21.547c-.757 2.27-1.007 5.744-.947 9.721.172 12.768 3.543 30.758 3.543 30.758z"/>
  <path fill="#000" d="M215.16 231.837c-7.712 1.778-24.685 6.997-31.205 19.594-4.349 8.388-8.008 11.986-10.561 13.492l-2.588-.181c.016-.052.031-.105.042-.158l2.335-.604 5.014-20.066 37.924-21.983c-.762 2.304-1.022 5.848-.961 9.906zM84.354 237.036l8.601 4.847c-.863.204-1.968.988-3.196 2.125-.716-1.965-5.217-4.709-7.261-5.879 1.11-.701 1.856-1.093 1.856-1.093zM169.644 263.204a1.012 1.012 0 01-1.162-.162c.377.11.768.165 1.162.162z" opacity=".1"/>
  <path fill="#FDB32A" d="M188.646 175.878s-7.874.872-13.413-4.958c0 0-23.302 6.708-31.195 21.863-7.892 15.154-61.54 44.889-61.54 44.889s9.332 5.245 8.454 7.867l35.281-20.405s12.548-9.031 16.031-11.074c3.483-2.043 22.746-14.575 26.827 19.527 4.081 34.101 0 30.022 0 30.022s5.831 2.043 14.286-14.283c8.454-16.325 34.689-20.112 34.689-20.112l1.458-17.191s5.204-11.397 1.195-16.128a10.163 10.163 0 01-2.336-4.934c-.663-4.367 0-11.642 9.285-17.687 14.286-9.33 19.824-16.905 19.824-16.905s.293-5.543-8.454-8.165c-8.747-2.622-44.315-16.905-44.315-16.905l-1.195 4.958 28.064 19.802s-13.993 11.349-25.095 11.074c0 0 2.062 8.453-7.851 8.745z"/>
  <path fill="#000" d="M194.044 161.252a51.005 51.005 0 01-1.614-6.714l-15.462 3.847c.682 2.781.56 5.683-.353 8.404 6.463 1.625 13.331-.556 17.429-5.537z" opacity=".1"/>
  <path fill="#B97A59" d="M181.263 167.32c8.984 0 16.267-7.283 16.267-16.267 0-8.985-7.283-16.268-16.267-16.268-8.984 0-16.267 7.283-16.267 16.268 0 8.984 7.283 16.267 16.267 16.267z"/>
  <path fill="#000" d="M189.429 112.845c4.626.524 9.017 2.521 13.571 3.61a6.714 6.714 0 003.51.139c1.768-.554 3.206-2.407 5.039-2.353 1.126 0 2.127.806 3.056 1.546a37.227 37.227 0 014.194 3.754c3.139 3.424 5.086 8.032 7.95 11.756s7.381 6.618 11.449 4.909c-2.768 10.829-11.833 19.077-21.64 19.751-3.912.265-7.921-.553-11.707.602-.944.385-1.939.628-2.954.722-2.181 0-3.936-2.01-5.296-3.965-3.187-4.596-5.71-9.818-9.298-14.012-1.199-1.383-2.583-2.701-4.26-2.953-1.678-.253-3.217.547-4.709 1.323-2.463 1.282-4.979 2.611-6.89 4.813-1.911 2.202-3.116 5.475-2.325 8.423.426 1.6 1.396 3.044 1.414 4.716.036 2.665-2.313 4.621-2.774 7.22a27.272 27.272 0 00-.114 3.284c-.203 3.562-2.522 6.48-4.942 8.718-.947.872-1.99 1.805-2.265 3.152-.186.915 0 1.889-.12 2.816-.353 2.31-2.648 3.483-4.679 3.79a13.574 13.574 0 01-7.022-.836c2.84-1.354 4.589-5.186 3.93-8.627-.904-4.765-5.673-8.182-5.266-13.037a15.202 15.202 0 011.318-4.29 39.295 39.295 0 002.253-8.122c.359-2.153.533-4.434-.138-6.479-.599-1.871-1.851-3.351-2.912-4.927a28.01 28.01 0 01-3.373-6.943 4.823 4.823 0 01-.323-2.292 4.708 4.708 0 011.468-2.406c2.606-2.75 5.392-5.614 8.885-6.396a19.682 19.682 0 015.044-.198 58.6 58.6 0 008.765-.373c2.397-.283 6.447-.241 8.478-1.805 1.893-1.462 2.96-3.285 5.29-4.211a15.404 15.404 0 017.393-.819zM198.692 284.676s10.786 18.664 7.517 24.401zM217.498 335.802l-14.043-18.097v.315s-.81-5.859 1.864-3.892c5.86 4.31 15.234 11.373 15.436 12.589.203 1.217-1.899 6.077-3.257 9.085z" opacity=".1"/>
  <g opacity=".1">
    <path fill="#000" d="M196.887 167.242s1.196 4.894-2.655 7.342c5.92-1.004 6.183-5.584 5.98-7.574a18.882 18.882 0 01-3.325.232zM86.008 236.223s53.687-29.563 61.593-44.633c5.651-10.816 19.273-17.303 26.509-20.107-5.275 1.782-23.047 8.501-29.72 21.266-7.876 15.069-61.593 44.638-61.593 44.638l3.211-1.164zM207.34 164.937c9.137-2.821 17.868-9.866 17.868-9.866l-28.034-19.721.64-2.696-2.685-1.07-1.166 4.931 28.016 19.708a67.747 67.747 0 01-14.639 8.714zM207.501 231.732a70.052 70.052 0 0110.979-2.756l.048-.558a74.817 74.817 0 00-11.027 3.314zM173.547 262.098h-.257a.53.53 0 01-.598-.083c.194.056.396.084.598.083.957-.553 2.392-4.883-.598-29.938-3.217-26.73-15.876-24.645-22.801-21.568 7.08-1.936 16.821-.261 19.59 22.727 3.02 25.054 1.579 29.385.598 29.937a6.487 6.487 0 003.468-1.158zM170.079 263.262a2.122 2.122 0 01-.598-.083.53.53 0 00.598.083z"/>
  </g>
  <path fill="#0B4870" d="M202.999 115.283a6.707 6.707 0 003.511.133c1.768-.548 3.206-2.407 5.039-2.353 1.126.036 2.127.806 3.055 1.546a37.53 37.53 0 014.194 3.755c3.14 3.424 5.087 8.033 7.951 11.758 2.864 3.724 7.381 6.619 11.449 4.91-2.768 10.831-11.833 19.08-21.64 19.754-3.913.271-7.921-.547-11.707.602-.943.388-1.939.632-2.954.722-2.181 0-3.936-2.01-5.296-3.965-3.188-4.597-5.71-9.814-9.299-14.008-1.198-1.39-2.582-2.708-4.26-2.961-1.677-.252-3.217.554-4.709 1.33-2.462 1.282-4.979 2.606-6.89 4.814-1.911 2.208-3.115 5.47-2.324 8.424.425 1.601 1.396 3.045 1.414 4.717.035 2.672-2.313 4.622-2.774 7.221a26.9 26.9 0 00-.114 3.286c-.204 3.562-2.523 6.474-4.943 8.719-.947.866-1.989 1.805-2.265 3.147-.186.92 0 1.889-.12 2.822-.353 2.31-2.648 3.484-4.679 3.784a13.438 13.438 0 01-7.022-.836c2.84-1.348 4.59-5.187 3.931-8.623-.905-4.765-5.674-8.189-5.267-13.039a15.17 15.17 0 011.318-4.29 39.366 39.366 0 002.253-8.13c.36-2.148.533-4.428-.138-6.48-.599-1.865-1.851-3.352-2.911-4.928a28.087 28.087 0 01-3.374-6.938 4.902 4.902 0 01-.323-2.299c.24-.922.752-1.75 1.468-2.376 2.606-2.75 5.392-5.609 8.885-6.397a19.918 19.918 0 015.045-.192 59.422 59.422 0 008.765-.373c2.396-.283 6.446-.247 8.477-1.806 1.894-1.456 2.96-3.285 5.291-4.212a15.523 15.523 0 017.393-.848c4.625.529 9.017 2.521 13.57 3.61z"/>
  <path fill="#fff" d="M299.781 310.239c18.61 0 33.697-15.087 33.697-33.696 0-18.61-15.087-33.697-33.697-33.697-18.61 0-33.696 15.087-33.696 33.697 0 18.609 15.086 33.696 33.696 33.696z"/>
  <path fill="#3ACC6C" fill-rule="evenodd" d="M316.32 312.642a44.734 44.734 0 0027.615-41.329c0-24.706-20.028-44.734-44.734-44.734a44.734 44.734 0 1017.119 86.063zm10.895-50.832l-33.184 33.183v.024a2.884 2.884 0 01-4.083 0l-18.761-18.756a2.895 2.895 0 010-4.083l4.083-4.106a2.893 2.893 0 014.083 0l12.637 12.666 27.065-27.065a2.876 2.876 0 014.077 0l4.083 4.054a2.884 2.884 0 010 4.083z" clip-rule="evenodd"/>
  <defs>
    <linearGradient id="paint0_linear" x1="169.219" x2="169.219" y1="265.656" y2="265.354" gradientUnits="userSpaceOnUse">
      <stop stop-color="gray" stop-opacity=".25"/>
      <stop offset=".54" stop-color="gray" stop-opacity=".12"/>
      <stop offset="1" stop-color="gray" stop-opacity=".1"/>
    </linearGradient>
    <linearGradient id="paint1_linear" x1="248.649" x2="248.649" y1="348.552" y2="111.546" gradientUnits="userSpaceOnUse">
      <stop stop-color="gray" stop-opacity=".25"/>
      <stop offset=".54" stop-color="gray" stop-opacity=".12"/>
      <stop offset="1" stop-color="gray" stop-opacity=".1"/>
    </linearGradient>
  </defs>
</svg>
