<svg xmlns="http://www.w3.org/2000/svg" width="1048" height="735" fill="none" viewBox="0 0 1048 735">
  <path fill="#EDF1F9" fill-rule="evenodd" d="M736.611 725.209a47.361 47.361 0 01-2.741 2.499c.111-.091.231-.174.34-.268a46.02 46.02 0 002.401-2.231M427.281 727.39c.12.102.251.192.371.292a45.95 45.95 0 01-2.722-2.482c.761.755 1.538 1.49 2.351 2.19M158.042 250.948l-19.818 18.504c.512 1.104.846 1.889.846 1.889s7.197 9.596 5.016 12.868c-.102.152-.205.283-.307.429 5.332 5.448 10.872 10.506 16.771 15.099 3.708-16.015 2.151-32.736-2.508-48.789M730.519 730.267" clip-rule="evenodd"/>
  <path fill="#E0E9F8" fill-rule="evenodd" d="M405.368 312.78c-1.913-.338-3.525-.748-4.556-1.83-7.706.534-14.901 2.004-22.27 4.665-7.634 2.617-15.485 6.107-24.209 8.724s-18.539 3.708-27.917 2.617c-4.157-.484-8.225-1.282-12.211-2.307-1.723 7.681-4.227 16.617-6.727 24.892-1.295 4.961-2.451 9.694-3.308 13.838-1.963 8.506-1.091 17.448 2.399 25.518 5.889 13.958 10.469 36.204 8.942 45.146-.918.26-1.821.482-2.728.713 1.596 2.696 2.981 5.523 4.037 8.447.268.759.575 1.699.896 2.716-.742-15.049-.75-30.146-.205-45.219-10.99-23.192 7.814-49.111 7.814-49.316 12.705 26.76 2.522 44.442-2.663 51.006a509.952 509.952 0 00-.335 17.985c7.622-19.35 30.261-28.82 30.261-28.643-3.37 30.687-22.896 39.877-30.07 42.239.284 10.502.899 21.119 1.935 31.753 6.811-20.612 30.97-30.59 30.97-30.59-3.308 30.141-22.198 39.537-29.666 42.102v.002a699.588 699.588 0 013.442 16.178c2.432.188 4.833.45 7.162.906 8.718-13.472 23.206-20.731 23.206-20.585-.443 12.855-3.967 22.17-8.429 28.883 4.51 5.451 6.772 12.761 9.147 20.055 6.418-5.477 12.15-8.371 12.15-8.371-.342 9.947-2.537 17.764-5.577 23.912 1.272 2.016 2.726 3.891 4.486 5.531 9.815 8.942 24.428 8.288 37.295 11.56.873.22 1.75.49 2.618.804V308.119c-1.813 2.552-4.061 4.984-5.889 4.661M242.011 111.474c1.678.458 3.462 1.023 5.202 1.023.75 0 1.492-.105 2.214-.369 2.399-.654 4.798-3.707 1.526-5.888-1.243-.829-2.582-1.154-3.943-1.154-2.218 0-4.497.861-6.525 1.808-.655.436-1.309.872-1.527 1.527-.436 1.526 1.527 2.617 3.053 3.053M585.083 66.11c0-6.108-6.761-11.124-15.049-11.124-.364.009-.746.013-1.147.013-1.298 0-2.783-.043-4.369-.087a180.996 180.996 0 00-4.981-.087c-8.074 0-16.547.979-16.547 7.576 0 3.305.002 7.891 4.292 11.124h33.751c2.51-1.935 4.05-4.502 4.05-7.416M262.513 110.602c1.557 1.21 3.524 1.598 5.578 1.598.535 0 1.078-.026 1.619-.072 9.378-.436 18.538-3.925 25.954-9.596 7.657-6.233-6.351-11.012-14.6-11.012-1.854 0-3.415.24-4.375.761-.872.437-1.309 1.309-1.745 2.181-1.745 2.618-4.798 4.362-7.851 5.671-1.745.654-3.708 1.309-5.017 2.617-2.181 2.181-1.963 6.107.437 7.852" clip-rule="evenodd"/>
  <path fill="#E0E9F8" fill-rule="evenodd" d="M259.241 156.402l-6.325 5.889 13.522 12.432-10.905 12.431-12.868-11.559-4.798 5.671 12.432 12.431-15.703 15.921-15.703-15.485-60.85 56.815c4.656 16.052 6.213 32.774 2.508 48.789.624.487 1.221 1.008 1.854 1.483 5.378 3.9 11.007 7.461 16.883 10.29.013-.805.048-1.618.129-2.438 1.09-12.432 10.686-22.683 22.682-25.082 2.181-.436 4.144-.654 6.107-.654 4.798 0 9.16-2.835 10.905-7.415 4.798-12.868 17.448-21.81 32.06-20.938 2.844.151 5.579.709 8.181 1.577.035-.039.072-.074.107-.111v-10.19h.218c0-6.761 5.671-12.432 12.432-12.432h11.341c3.272 0 6.543-.872 9.16-2.399 3.926-2.181 9.16-1.526 11.778 2.181 1.23 1.582 2.161 3.409 2.355 5.357.109.576.135 1.25.044 2.059-.679 7.454-2.428 12.58-4.168 15.984 1.799 6.415 4.822 12.369 4.822 12.369-.031-.018-.057-.035-.085-.053 1.721 4.179 2.702 8.945 2.702 14.011 0 4.923-.935 9.553-2.567 13.647 3.874 1.343 6.899 4.407 8.212 8.372 4.466 1.885 8.961 3.477 13.548 4.589 7.197 1.745 14.613 1.745 22.246.655 7.852-1.091 15.921-3.272 24.645-4.799 7.811-1.365 15.965-1.849 23.693-.999.863-5.363 4.137-12.268 6.841-16.012 1.043-1.44 2.759-2.969 4.58-4.328V119.543c0-25.517 20.72-46.019 46.019-46.019h62.167l-.663-.218c-24.673-8.176-61.07-16.157-97.49-16.157-17.982 0-35.98 1.948-52.562 6.779-42.54 12.486-60.843 56.394-98.361 56.394-1.145 0-2.309-.041-3.491-.124a128.785 128.785 0 00-9.37-.343c-77.366 0-117.427 71.36-107.663 108.151l95.223-87.089 14.176 15.485zM275.382 734.367c-2.232-.746-3.337-3.073-2.81-5.23-2.902-1.819-3.733-2.84-3.733-2.84-1.091-.874-1.527-2.617-.873-3.926.654-1.09 2.181-3.928 3.272-6.109.264-.527.844-.772 1.411-.724.434-1.269 1.049-2.826 1.86-3.638 1.44-1.439 2.87-2.885 4.02-4.473a34.115 34.115 0 00-.748-5.557l-5.307-23.882a2.07 2.07 0 01-.8-1.199c-8.506-28.137-17.448-60.632-18.102-68.702-.437-5.236-.219-12.434.872-19.193a70.907 70.907 0 00.766-14.676c-.45-2.102-.657-4.233-.672-6.383a62.78 62.78 0 00-1.839-8.384c-5.472-18.447-10.765-39.714-14.911-59.279-.118-.162-.242-.319-.356-.482-6.493-9.298-8.881-21.56-5.707-32.246-2.072-13.68-2.853-24.048-1.708-28.168 1.372-5.114 3.714-10.035 6.682-14.464a36.856 36.856 0 01-1.884-1.237l12.868-35.552c1.509-4.118 2.325-8.498 2.454-12.862-3.431 1.547-7.108 2.615-10.96 3.047-20.501 2.401-38.385-12.211-41.221-31.84-.436-4.362-2.617-8.288-6.107-10.689a29.002 29.002 0 01-9.367-10.567c-4.035-1.852-7.862-4.026-11.57-6.445-4.65-3.032-8.918-6.449-12.992-10.059-9.427 26.113-30.076 46.916-46.767 69.384-17.012 23.117-30.752 51.69-22.247 78.732 7.198 22.9 28.79 38.822 42.312 59.323 41.657 63.249.436 160.303 56.051 213.085 2.048 1.948 4.181 3.743 6.36 5.453h82.381c-.212-.074-.43-.151-.628-.218M1008.2 522.155c-2.19.872-4.37 1.962-5.46 3.928a10.149 10.149 0 00-1.31 5.016c-.43 3.708-.65 7.195-.65 10.905 0 3.923.44 8.285 3.49 11.121 1.99 1.779 4.53 2.403 7.21 2.403 2.91 0 5.99-.735 8.71-1.529 3.05-.874 6.32-1.745 8.29-4.146 1.53-1.745 1.96-3.926 2.4-6.107 1.31-7.195 5.23-18.1.87-22.025-2.11-1.726-5.44-2.441-9.15-2.441-4.75 0-10.12 1.165-14.4 2.875M410.167 298.823c.296.133.671.074 1.09-.094v-4.827c-1.551 2.277-2.405 4.334-1.09 4.921M105.264 347.021c2.181 1.527 4.798 2.617 7.415 2.617 3.054 0 5.671-1.745 8.07-3.487 5.452-4.146 9.596-9.815 13.74-15.051 2.181-2.835 4.362-5.889 4.798-9.16 1.091-7.634-5.67-13.523-7.851-20.066-1.695-5.083-4.914-8.318-9.655-8.318-1.972 0-4.205.558-6.703 1.775-5.016 2.4-8.505 6.98-11.559 11.56-4.798 7.415-8.942 15.703-7.852 24.209.655 6.327 4.363 12.213 9.597 15.921" clip-rule="evenodd"/>
  <path fill="#E0E9F8" fill-rule="evenodd" d="M941.676 226.848l-157.904 54.743c-11.778 4.144-25.082-2.399-29.226-14.394l-4.362-12.598v364.756a113.222 113.222 0 019.597-2.545c-5.017-9.596 6.543-19.845 17.23-21.81 4.578-.839 9.393-1.042 14.054-1.529 4.201-7.808 7.956-15.893 11.3-24.198-7.28-3.086-25.4-13.775-26.445-44.065 0 0 26.12 13.165 29.311 36.648 3.969-10.772 7.293-21.86 10.023-33.138-7.262-3.073-25.421-13.754-26.468-44.074 0-.188 23.986 11.878 28.798 33.688 2.087-9.985 3.742-20.076 5.014-30.192-7.466-2.562-26.355-11.956-29.666-42.102.183 0 24.194 9.97 30.974 30.563 1.036-10.628 1.647-21.232 1.933-31.723-7.174-2.362-26.7-11.553-30.072-42.242.179-.176 22.667 9.281 30.261 28.595a502.641 502.641 0 00-.348-18.233c-5.246-6.785-14.953-24.333-2.432-50.71 0 .207 18.78 26.373 7.607 49.65.545 15.35.526 30.722-.27 46.046 4.318-8.792 14.939-22.353 39.988-25.25 0 0-13.016 32.004-40.446 32.92-.796 11.533-2.059 23.029-3.85 34.46 5.18-8.768 16.203-20.161 39.064-22.888.211 0-13.151 32.279-40.881 33.553-.948 5.045-2 10.072-3.175 15.084a317.128 317.128 0 01-4.918 18.209c7.142-7.291 20.547-15.69 43.301-12.975-.137 0-8.853 12.063-22.423 18.979 2.666-.523 5.448-.65 8.271-.65 1.075 0 2.152.018 3.236.033 1.08.015 2.159.033 3.237.033 4.491 0 8.911-.284 12.916-2.037 13.086-5.671 16.793-23.991 29.879-30.096 2.6-1.274 5.414-1.86 8.247-1.86 8.335 0 16.854 5.057 20.761 12.545 5.234 10.034 2.835 23.12-4.362 32.06-5.671 6.761-14.177 11.78-17.666 19.847-5.453 12.868 3.271 28.353-1.963 41.439-9.379 23.991-53.871 16.794-61.723 41.439-1.744 5.453-1.09 11.341-1.526 17.23-1.309 17.012-13.304 31.843-28.137 40.348-14.829 8.509-32.277 11.342-49.289 12.65-2.124.133-4.29.244-6.444.244-4.929 0-9.808-.586-14.059-2.861a23.119 23.119 0 01-4.412-2.999c-.111.094-.229.175-.34.266-.413.347-.847.668-1.27.999a47.59 47.59 0 01-2.08 1.562c-.476.329-.967.639-1.453.951a46.33 46.33 0 01-2.133 1.302c-.519.296-1.045.573-1.579.85-.733.378-1.472.74-2.229 1.078-.094.041-.183.093-.279.135H933.44c11.843-12.512 21.234-27.114 27.21-42.966 20.72-55.179 1.091-119.082 24.425-173.389 18.975-44.274 65.435-80.042 62.595-127.806-1.74-29.662-22.9-54.525-37.29-80.915-16.489-29.806-3.75-126.98-73.086-166.334l18.776 54.231c4.144 11.995-2.399 25.299-14.394 29.443" clip-rule="evenodd"/>
  <path fill="#E0E9F8" fill-rule="evenodd" d="M813.072 554.312c-3.525 10.334-7.629 20.465-12.349 30.279 3.574-2.48 8.434-5.008 14.593-6.462 4.453-8.894 6.709-19.601 14.582-25.056-5.165 1.59-10.822 2.225-16.826 1.239M436.187 733.362a43.402 43.402 0 01-1.59-.857 43.794 43.794 0 01-2.119-1.289c-.496-.321-.993-.632-1.473-.97a44.507 44.507 0 01-2.05-1.538c-.436-.34-.881-.667-1.302-1.025-.12-.1-.253-.19-.371-.292-3.315-.153-6.647-.591-9.919-1.093-20.719-3.056-41.655-8.288-59.103-20.065-17.448-11.78-30.754-31.188-30.754-52.128 0-7.197 1.311-14.177-.218-21.154-1.298-5.76-4.266-10.277-8.292-14.019-7.256 21.638-16.569 48.525-23.769 67.018-.102-.031-.205-.096-.305-.134l-5.247 17.963c1.825 10.704 4.586 19.503 8.608 22.519 3.81 2.822 8.05 5.62 11.843 8.288h128.589c-.102-.046-.2-.101-.301-.146a45.228 45.228 0 01-2.227-1.078M287.295 664.112c2.148-19.185 4.992-41.215 7.546-58.658-3.426-1.409-6.89-2.799-10.279-4.249.807 14.517 1.996 39.762 2.733 62.907M732.658 83.454c-4.005-16.431-1.523-33.227 5.974-47.423-13.911-6.552-28.685-9.586-43.014-9.586-29.463 0-57.037 12.787-71.277 33.993-3.677 5.422-8.072 9.732-13.023 13.086h92.847c10.794 0 20.665 3.738 28.493 9.93M763.488 79.414l6.543 18.974 21.474-7.448c-1.78-3.014-3.544-6.137-5.335-9.345-6.277-11.276-13.738-20.641-21.98-28.27-3.289 8.058-3.808 17.273-.702 26.089M855.09 192.607a29.64 29.64 0 008.724-32.279c-5.453-15.267-22.247-23.336-37.514-18.102-15.267 5.453-23.336 22.246-18.102 37.513 4.144 11.996 15.049 19.411 26.826 19.847l10.905 31.625c.437 1.308 1.963 1.963 3.054 1.526l15.267-5.234c1.308-.654 2.181-1.963 1.745-3.271l-10.905-31.625z" clip-rule="evenodd"/>
  <path fill="#C5D6F1" fill-rule="evenodd" d="M734.21 727.441a23.219 23.219 0 004.413 2.999c4.25 2.275 9.129 2.863 14.058 2.863 2.155 0 4.321-.113 6.445-.246 17.012-1.306 34.46-4.142 49.288-12.65 14.833-8.506 26.829-23.336 28.137-40.348.437-5.889-.218-11.778 1.527-17.23 7.852-24.645 52.344-17.448 61.722-41.439 5.235-13.086-3.489-28.571 1.963-41.439 3.49-8.067 11.996-13.086 17.666-19.847 7.198-8.94 9.597-22.026 4.362-32.061-3.906-7.485-12.425-12.545-20.761-12.545-2.833 0-5.646.587-8.246 1.861-13.086 6.106-16.794 24.425-29.88 30.097-4.004 1.752-8.423 2.035-12.915 2.035-1.078 0-2.157-.017-3.237-.03a195.014 195.014 0 00-3.237-.035c-2.822 0-5.605.126-8.27.65a46.093 46.093 0 01-7.348 2.996c-7.871 5.455-10.128 16.162-14.58 25.056 8.218-1.939 18.755-1.954 31.703 2.695 0 0-25.596 22.373-50.555 12.214-9.553 18.085-21.306 34.937-35.594 49.729-3.378 3.442-6.947 6.933-10.687 10.323v39.404a44.41 44.41 0 01-.188 4.362c-.013.159-.019.32-.034.479a45.609 45.609 0 01-.591 4.027c-.04.215-.079.431-.123.649a46.112 46.112 0 01-.964 3.817c-.065.214-.133.43-.2.646a45.053 45.053 0 01-1.337 3.692c-.072.17-.148.336-.223.506a44.72 44.72 0 01-1.744 3.649l-.114.198a45.528 45.528 0 01-2.091 3.46c-.057.087-.112.176-.171.263a45.768 45.768 0 01-2.375 3.189c-.122.148-.24.303-.364.454a46.47 46.47 0 01-2.584 2.852l-.469.474a48.691 48.691 0 01-2.402 2.231M791.065 593.471c-4.663.487-9.478.687-14.054 1.529-10.689 1.965-22.248 12.214-17.232 21.81-3.4.751-6.6 1.603-9.594 2.545v26.862c16.826-15.115 30.279-33.032 40.88-52.746" clip-rule="evenodd"/>
  <path fill="#EFCD8F" fill-rule="evenodd" d="M255.21 574.22a65.666 65.666 0 00-.671-6.386c.015 2.153.222 4.283.671 6.386" clip-rule="evenodd"/>
  <path fill="#C5D6F1" fill-rule="evenodd" d="M336.741 547.635c.303 8.468-.238 15.234-2.037 19.013-.052.293-.124.589-.179.884a42.549 42.549 0 0113.003 5.939 271.696 271.696 0 01-10.787-25.836M371.345 543.747c-1.76-1.64-3.217-3.516-4.488-5.531-6.214 12.567-15.978 18.081-20.866 20.152 13.871 34.445 34.818 65.169 65.266 87.607v-89.864a27.852 27.852 0 00-2.617-.805c-12.868-3.271-27.48-2.617-37.295-11.559M237.431 499.691c.116.161.238.318.356.482-2.517-11.88-4.609-23.119-6.064-32.728-3.171 10.685-.785 22.946 5.708 32.246M360.284 522.674c-2.375-7.293-4.635-14.604-9.147-20.052-5.856 8.809-13.331 13.125-17.605 15.005.24 1.54.466 3.065.684 4.58 2.509 9.765 5.457 19.374 8.908 28.744 1.699-12.491 9.866-22.054 17.16-28.277" clip-rule="evenodd"/>
  <path fill="#C5D6F1" fill-rule="evenodd" d="M387.484 631.86c-14.272-14.774-26.014-31.604-35.563-49.665-7.385 2.942-14.798 3.101-21.585 1.841-.072.235-.142.482-.212.713-1.317 4.418-5.633 17.797-11.127 34.183 4.026 3.742 6.994 8.259 8.292 14.019 1.527 6.977.218 13.956.218 21.153 0 20.94 13.304 40.349 30.752 52.128 17.448 11.778 38.386 17.01 59.105 20.066 3.269.501 6.604.94 9.917 1.092a47.7 47.7 0 01-2.351-2.189c-.157-.155-.312-.315-.467-.474a45.835 45.835 0 01-2.591-2.857c-.118-.144-.231-.29-.347-.434a46.518 46.518 0 01-2.392-3.208l-.142-.223a46.287 46.287 0 01-2.098-3.461c-.044-.078-.092-.157-.135-.235a46.115 46.115 0 01-1.745-3.634c-.076-.172-.155-.345-.227-.519a46.726 46.726 0 01-1.348-3.69c-.067-.214-.135-.426-.2-.644a45.299 45.299 0 01-.982-3.821c-.043-.211-.083-.425-.124-.639a45.232 45.232 0 01-.615-4.03c-.015-.159-.024-.316-.039-.474a45.66 45.66 0 01-.221-4.366v-39.637c-8.684-6.227-16.645-13.732-23.773-20.995M290.034 516.085c-.066 1.337-.133 2.676-.203 4.02.796-.086 1.59-.168 2.362-.229a538.583 538.583 0 01-2.159-3.791M301.553 569.919c.393-.139.773-.253 1.161-.388 5.55-11.219 4.61-24.667-2.033-35.38a424.026 424.026 0 01-2.362-3.869c-4.227-3.747-7.186-7.239-8.552-8.962-1.289 24.355-3.245 49.419-6.316 66.265.218 1.091.436 1.963.436 2.836.153 1.889.391 5.681.674 10.785 3.392 1.45 6.855 2.837 10.282 4.248 2.113-14.444 4.03-25.738 5.184-29.646.606-1.821 1.404-3.625 2.211-5.271-.464-.391-.706-.618-.685-.618M329.198 493.417a607.502 607.502 0 012.205 11.552c1.147-3.891 2.886-7.444 4.958-10.647-2.328-.456-4.729-.718-7.163-.905" clip-rule="evenodd"/>
  <mask id="a" width="228" height="283" x="730" y="0" maskUnits="userSpaceOnUse">
    <path fill="#fff" fill-rule="evenodd" d="M730.758 0h226.557v282.838H730.758V0z" clip-rule="evenodd"/>
  </mask>
  <g mask="url(#a)">
    <path fill="#C5D6F1" fill-rule="evenodd" d="M786.171 32.304c19.192-6.761 40.348 3.49 47.109 22.9l6.543 18.975-48.32 16.76-21.472 7.449-6.543-18.975c-3.105-8.815-2.586-18.03.703-26.089 3.873-9.485 11.6-17.365 21.98-21.02m78.079 195.199l-15.267 5.234c-1.09.437-2.617-.218-3.055-1.526l-10.905-31.625c-11.775-.436-22.68-7.851-26.824-19.847-5.237-15.267 2.833-32.06 18.1-37.513 15.267-5.234 32.063 2.835 37.515 18.102a29.64 29.64 0 01-8.724 32.279l10.905 31.625c.436 1.308-.438 2.617-1.745 3.271M732.658 83.455c10.676 8.447 17.526 21.492 17.526 36.089V254.6l4.362 12.597c4.142 11.996 17.448 18.539 29.223 14.395l157.907-54.743c11.995-4.144 18.538-17.448 14.392-29.443l-18.774-54.231-24.192-69.868c-3.925-11.996-17.011-18.539-29.223-14.177l-15.267 5.235-6.543-18.975c-12.215-35.114-50.817-53.87-85.933-41.657-16.763 5.832-29.788 17.686-37.504 32.296-7.496 14.196-9.978 30.994-5.974 47.426" clip-rule="evenodd"/>
  </g>
  <path fill="#99B9EE" fill-rule="evenodd" d="M760.87 642.765c14.29-14.791 26.041-31.644 35.594-49.729 24.961 10.159 50.555-12.211 50.555-12.211-12.948-4.652-23.485-4.635-31.703-2.698-6.159 1.455-11.02 3.983-14.595 6.462 4.722-9.814 8.824-19.943 12.351-30.278 6.002.988 11.66.351 16.824-1.239a46.29 46.29 0 007.35-2.997c13.568-6.916 22.284-18.977 22.423-18.977-22.756-2.715-36.159 5.682-43.304 12.973a316.322 316.322 0 004.919-18.209 342.469 342.469 0 003.175-15.084c27.729-1.274 41.092-33.55 40.881-33.55-22.862 2.726-33.884 14.117-39.064 22.887 1.793-11.43 3.055-22.929 3.849-34.462 27.431-.916 40.449-32.92 40.449-32.92-25.051 2.897-35.672 16.458-39.988 25.25.793-15.324.815-30.696.27-46.046 11.171-23.277-7.607-49.443-7.607-49.65-12.524 26.377-2.814 43.925 2.431 50.71.221 6.007.343 12.09.347 18.236-7.592-19.317-30.082-28.774-30.261-28.597 3.372 30.69 22.898 39.881 30.071 42.243-.285 10.489-.896 21.093-1.932 31.721-6.781-20.593-30.791-30.56-30.974-30.56 3.313 30.143 22.2 39.539 29.668 42.101-1.272 10.114-2.929 20.205-5.017 30.19-4.809-21.81-28.795-33.875-28.795-33.688 1.044 30.32 19.203 41.001 26.468 44.074-2.73 11.278-6.056 22.366-10.024 33.138-3.193-23.481-29.312-36.645-29.312-36.645 1.045 30.287 19.166 40.978 26.444 44.064-3.343 8.304-7.097 16.388-11.297 24.196-10.604 19.714-24.056 37.631-40.881 52.746v6.872c3.739-3.387 7.307-6.881 10.685-10.323M345.992 558.37c4.888-2.072 14.65-7.588 20.866-20.153 3.04-6.148 5.234-13.965 5.579-23.912 0 0-5.732 2.894-12.153 8.37-7.295 6.221-15.463 15.786-17.16 28.277-3.45-9.37-6.401-18.981-8.907-28.743 1.333 9.258 2.257 17.999 2.524 25.426a271.696 271.696 0 0010.787 25.836 42.593 42.593 0 00-13.001-5.939c-1.051 5.581-2.602 11.291-4.19 16.506 6.787 1.26 14.201 1.099 21.585-1.843 9.547 18.061 21.289 34.891 35.562 49.665 7.127 7.263 15.088 14.77 23.772 20.995v-6.879c-30.448-22.438-51.395-53.162-65.264-87.606M298.319 530.282a545.606 545.606 0 01-6.126-10.405c-.772.059-1.566.141-2.362.227-.02.405-.044.811-.064 1.217 1.366 1.723 4.325 5.214 8.552 8.961" clip-rule="evenodd"/>
  <path fill="#FDB32A" fill-rule="evenodd" d="M302.713 569.532c-.388.135-.768.246-1.16.388-.022 0 .22.225.687.617.063-.131.122-.272.185-.401.105-.196.19-.403.288-.604" clip-rule="evenodd"/>
  <path fill="#99B9EE" fill-rule="evenodd" d="M355.423 435.134s-24.159 9.979-30.97 30.591c-1.036-10.637-1.651-21.251-1.934-31.753 7.173-2.362 26.699-11.553 30.069-42.239 0-.177-22.639 9.293-30.261 28.641.004-6.059.122-12.059.336-17.983 5.184-6.565 15.367-24.246 2.663-51.007 0 .205-18.805 26.124-7.815 49.317-.545 15.073-.536 30.17.203 45.219 2.03 6.455 5.021 17.886 8.043 31.319v-.003c7.468-2.564 26.356-11.96 29.666-42.102M351.137 502.621c4.462-6.713 7.987-16.03 8.429-28.882 0-.149-14.486 7.112-23.205 20.582-2.072 3.203-3.811 6.756-4.958 10.647a513.856 513.856 0 012.129 12.659c4.275-1.878 11.747-6.196 17.605-15.006M462.292 92.935h56.924c6.107 0 11.123 5.016 11.123 11.123v7.852c0 6.107 5.017 11.123 11.123 11.123h89.203c6.107 0 11.123-5.016 11.123-11.123v-7.852c0-6.107 5.016-11.123 11.123-11.123h49.509a32.206 32.206 0 0132.279 32.279v557.462a32.205 32.205 0 01-32.279 32.279H459.239a32.205 32.205 0 01-32.279-32.279V125.214a32.206 32.206 0 0132.279-32.279h3.053zm-51.035 26.608v164.918c3.14-2.342 6.586-4.178 7.415-4.178 4.144.218-1.963 6.761-4.798 10.25a38.091 38.091 0 00-2.617 3.37v4.824c2.344-.938 6.285-5.762 8.506-5.577 2.617.218-5.235 9.597-5.235 9.597s-1.404 2.748-3.271 5.374V692.491c0 1.474.085 2.927.22 4.366.015.159.024.316.039.473.144 1.363.356 2.707.615 4.033.042.211.081.427.127.639.273 1.293.6 2.567.979 3.821.066.216.133.43.203.643a45.33 45.33 0 001.346 3.691c.072.172.152.344.227.517a46.287 46.287 0 001.746 3.633c.042.079.092.159.136.238a45.475 45.475 0 002.096 3.461c.048.074.093.148.141.22a46.266 46.266 0 002.393 3.211c.116.142.229.29.347.432a45.87 45.87 0 002.591 2.859c.155.159.309.316.466.471.875.866 1.785 1.69 2.725 2.482.42.358.865.687 1.299 1.027.672.528 1.35 1.049 2.051 1.538.482.336.979.65 1.474.968.693.445 1.398.884 2.118 1.291.525.299 1.055.58 1.592.857.73.378 1.472.738 2.227 1.078.1.044.198.1.301.144h284.131c.096-.042.185-.094.279-.135a47.727 47.727 0 003.808-1.928 48.158 48.158 0 002.133-1.302c.489-.312.977-.622 1.453-.951a47.59 47.59 0 002.08-1.562c.423-.331.86-.652 1.27-.999a45.96 45.96 0 002.741-2.499l.471-.471a46.798 46.798 0 002.583-2.853c.124-.151.244-.305.364-.454a45.75 45.75 0 002.375-3.188c.059-.088.113-.177.17-.264a45.717 45.717 0 002.092-3.459l.113-.199a44.317 44.317 0 001.747-3.651c.072-.168.148-.333.22-.504.5-1.206.942-2.438 1.339-3.692l.199-.646c.373-1.254.698-2.525.964-3.816.043-.218.083-.437.122-.65.255-1.326.456-2.665.591-4.026.015-.16.024-.321.037-.482.127-1.438.199-2.89.186-4.362V119.543c0-14.597-6.849-27.642-17.527-36.089-7.828-6.194-17.699-9.93-28.493-9.93H457.276c-25.3 0-46.019 20.501-46.019 46.019z" clip-rule="evenodd"/>
  <path fill="#F7F7F7" fill-rule="evenodd" d="M469.925 370.576h213.302a17.595 17.595 0 0117.666 17.668c0 9.595-7.852 17.664-17.666 17.664H469.925a17.59 17.59 0 01-17.666-17.664 17.595 17.595 0 0117.666-17.668m106.651-104.468c24.573 0 44.492 19.919 44.492 44.49 0 14.875-7.326 28.011-18.538 36.089-7.309 5.267-16.257 8.404-25.954 8.404-9.795 0-18.82-3.202-26.17-8.565-11.088-8.092-18.322-21.149-18.322-35.928 0-24.571 19.919-44.49 44.492-44.49m106.869 203.049H470.144a17.59 17.59 0 01-17.666-17.664 17.594 17.594 0 0117.666-17.668h213.301a17.595 17.595 0 0117.666 17.668c0 9.815-8.07 17.664-17.666 17.664M426.96 125.214v557.464a32.204 32.204 0 0032.279 32.277H702.42a32.203 32.203 0 0032.278-32.277V125.214c0-17.884-14.394-32.279-32.278-32.279h-49.509c-6.107 0-11.123 5.016-11.123 11.123v7.852c0 6.107-5.016 11.123-11.123 11.123h-89.203c-6.107 0-11.123-5.016-11.123-11.123v-7.852c0-6.107-5.016-11.123-11.123-11.123h-59.977a32.206 32.206 0 00-32.279 32.279" clip-rule="evenodd"/>
  <path fill="#D6E2F6" fill-rule="evenodd" d="M576.576 283.118c9.596 0 17.23 7.634 17.23 17.23 0 9.597-7.634 17.23-17.23 17.23s-17.23-7.633-17.23-17.23c0-9.596 7.634-17.23 17.23-17.23m-26.17 63.406c.033-13.925 11.359-25.02 25.079-25.02h1.963c13.959 0 25.082 11.341 25.082 25.081v.101c11.212-8.079 18.538-21.213 18.538-36.087 0-24.573-19.919-44.492-44.492-44.492-24.573 0-44.492 19.919-44.492 44.492 0 14.778 7.234 27.834 18.322 35.925" clip-rule="evenodd"/>
  <path fill="#99B9EE" fill-rule="evenodd" d="M577.449 321.503h-1.963c-13.72 0-25.046 11.095-25.079 25.023 7.35 5.363 16.375 8.564 26.17 8.564 9.697 0 18.643-3.136 25.954-8.403v-.102c0-13.741-11.126-25.082-25.082-25.082M576.576 317.577c9.596 0 17.23-7.633 17.23-17.229 0-9.597-7.634-17.23-17.23-17.23s-17.23 7.633-17.23 17.23c0 9.596 7.634 17.229 17.23 17.229" clip-rule="evenodd"/>
  <path fill="#D6E2F6" fill-rule="evenodd" d="M477.34 383.662h198.471c2.617 0 4.582 1.963 4.582 4.582 0 2.397-1.965 4.578-4.582 4.578H477.34c-2.617 0-4.58-1.961-4.58-4.578 0-2.619 1.963-4.582 4.58-4.582m-7.415 22.246h213.302c9.814 0 17.666-8.07 17.666-17.664a17.595 17.595 0 00-17.666-17.669H469.925a17.595 17.595 0 00-17.666 17.669 17.591 17.591 0 0017.666 17.664" clip-rule="evenodd"/>
  <path fill="#99B9EE" fill-rule="evenodd" d="M477.34 392.822h198.471c2.617 0 4.582-2.181 4.582-4.58 0-2.617-1.965-4.58-4.582-4.58H477.34c-2.617 0-4.58 1.963-4.58 4.58 0 2.619 1.963 4.58 4.58 4.58" clip-rule="evenodd"/>
  <path fill="#D6E2F6" fill-rule="evenodd" d="M557.82 456.507c-2.617 0-4.58-1.962-4.58-4.58 0-2.617 1.963-4.58 4.58-4.58 2.618 0 4.581 1.963 4.581 4.58 0 2.618-2.181 4.58-4.581 4.58m-13.74 0c-2.617 0-4.58-1.962-4.58-4.58 0-2.617 1.963-4.58 4.58-4.58 2.618 0 4.581 1.963 4.581 4.58 0 2.618-2.181 4.58-4.581 4.58m-13.74 0c-2.617 0-4.58-1.962-4.58-4.58 0-2.617 1.963-4.58 4.58-4.58s4.58 1.963 4.58 4.58c0 2.618-1.963 4.58-4.58 4.58m-13.74 0c-2.617 0-4.58-1.962-4.58-4.58 0-2.617 1.963-4.58 4.58-4.58s4.58 1.963 4.58 4.58c0 2.618-1.963 4.58-4.58 4.58m-13.74 0c-2.618 0-4.581-1.962-4.581-4.58 0-2.617 1.963-4.58 4.581-4.58 2.617 0 4.58 1.963 4.58 4.58 0 2.618-1.963 4.58-4.58 4.58m-13.523 0c-2.617 0-4.58-1.962-4.58-4.58 0-2.617 1.963-4.58 4.58-4.58s4.58 1.963 4.58 4.58c0 2.618-2.181 4.58-4.58 4.58m-13.74 0c-2.617 0-4.58-1.962-4.58-4.58 0-2.617 1.963-4.58 4.58-4.58s4.58 1.963 4.58 4.58c0 2.618-2.181 4.58-4.58 4.58m207.849-22.682H470.144a17.593 17.593 0 00-17.666 17.666 17.593 17.593 0 0017.666 17.666h213.302c9.596 0 17.666-7.852 17.666-17.666a17.593 17.593 0 00-17.666-17.666" clip-rule="evenodd"/>
  <path fill="#99B9EE" fill-rule="evenodd" d="M516.598 447.347c-2.617 0-4.58 1.963-4.58 4.582 0 2.615 1.963 4.578 4.58 4.578 2.618 0 4.58-1.963 4.58-4.578 0-2.619-1.962-4.582-4.58-4.582M544.08 447.347c-2.618 0-4.58 1.963-4.58 4.582 0 2.615 1.962 4.578 4.58 4.578 2.399 0 4.58-1.963 4.58-4.578 0-2.619-1.963-4.582-4.58-4.582M502.859 447.347c-2.617 0-4.58 1.963-4.58 4.582 0 2.615 1.963 4.578 4.58 4.578s4.58-1.963 4.58-4.578c0-2.619-1.963-4.582-4.58-4.582M557.82 447.347c-2.617 0-4.58 1.963-4.58 4.582 0 2.615 1.963 4.578 4.58 4.578 2.399 0 4.58-1.963 4.58-4.578 0-2.619-1.963-4.582-4.58-4.582M530.339 447.347c-2.617 0-4.58 1.963-4.58 4.582 0 2.615 1.963 4.578 4.58 4.578 2.618 0 4.58-1.963 4.58-4.578 0-2.619-1.962-4.582-4.58-4.582M489.336 447.347c-2.617 0-4.58 1.963-4.58 4.582 0 2.615 1.963 4.578 4.58 4.578 2.4 0 4.581-1.963 4.581-4.578 0-2.619-1.963-4.582-4.581-4.582M475.596 447.347c-2.617 0-4.58 1.963-4.58 4.582 0 2.615 1.963 4.578 4.58 4.578 2.399 0 4.58-1.963 4.58-4.578 0-2.619-1.962-4.582-4.58-4.582" clip-rule="evenodd"/>
  <path fill="#B97A59" fill-rule="evenodd" d="M289.674 703.778l5.247-17.96c-3.299-1.171-6.538-5.474-8.366-9.293-.017.015-.033.035-.052.045-4.144 2.618-8.506 2.836-13.086 1.745a1.59 1.59 0 01-.942-.325l5.304 23.88c.41 1.845.65 3.703.75 5.559-1.149 1.586-2.58 3.032-4.022 4.474-.811.811-1.424 2.368-1.86 3.637.368.029.731.162.988.506 7.415 9.815 17.668 16.358 29.225 15.486 1.564.656 3.032 1.781 4.231 3.053h3.034c-3.79-2.667-8.032-5.466-11.843-8.288-4.021-3.016-6.783-11.814-8.608-22.519" clip-rule="evenodd"/>
  <path fill="#0B4870" fill-rule="evenodd" d="M256.406 296.204h10.288l4.513-15.494.277-.986c-.304-.255-.589-.479-.901-.75-2.868-2.39-5.141-6.176-6.166-9.662-1.278-.338-2.515-1.932-3.407-3.93 4.04-1.282 9.553-2.331 18.297-6.473 8.102-3.889 11.81-6.547 13.629-8.848.866 3.313 2.506 7.596 5.546 11.6a45.48 45.48 0 01-.855 5.318c-1.745 8.724-7.415 20.065-10.905 20.065-.037 0-.074-.007-.111-.007l.111 3.715-.022.013.153 5.439h16.227c1.555 0 3.027.297 4.412.776 1.629-4.093 2.567-8.723 2.567-13.644 0-5.066-.984-9.832-2.705-14.011l.088.053s-3.023-5.954-4.823-12.369c1.739-3.404 3.49-8.529 4.168-15.984.092-.809.066-1.483-.043-2.059-.194-1.948-1.128-3.777-2.356-5.357-2.617-3.707-7.851-4.361-11.777-2.181-2.617 1.527-5.889 2.4-9.16 2.4H272.11c-6.762 0-12.432 5.67-12.432 12.431h-.218v10.188c-.035.039-.072.074-.107.113a31.011 31.011 0 00-8.181-1.577c-14.613-.872-27.262 8.07-32.061 20.938-1.744 4.58-6.106 7.415-10.905 7.415-1.963 0-3.925.218-6.106.654-11.996 2.4-21.592 12.65-22.683 25.082-.08.82-.115 1.631-.128 2.438 3.655 1.758 7.404 3.235 11.251 4.323 5.017 1.309 10.033 2.399 15.049 2.617 5.016.218 10.033-.218 15.049-1.09 5.016-.873 9.815-2.617 14.395-4.58 2.181-1.091 4.58-2.181 6.761-3.49a68.192 68.192 0 001.893-1.176c.046-.316.102-.63.17-.94.807-6.348 6.196-10.97 12.549-10.97M249.645 367.523c-1.494-11.06-3.91-28.671-5.143-42.806a259.893 259.893 0 01-3.363 1.585c-5.67 2.399-11.777 3.924-17.884 5.014-12.432 1.747-25.081 0-36.422-4.362a74.364 74.364 0 01-4.352-1.84 29.029 29.029 0 009.368 10.564c3.489 2.402 5.67 6.328 6.107 10.69 2.835 19.628 20.719 34.241 41.22 31.84 3.852-.432 7.529-1.501 10.96-3.047a40.67 40.67 0 00-.491-7.638" clip-rule="evenodd"/>
  <path fill="#B97A59" fill-rule="evenodd" d="M314.205 324.649c3.987 1.025 8.052 1.824 12.211 2.308 9.379 1.09 19.193 0 27.917-2.617 8.724-2.618 16.576-6.107 24.209-8.724 7.367-2.661 14.565-4.131 22.268-4.666 1.034 1.082 2.646 1.492 4.558 1.83 1.828.323 4.074-2.109 5.889-4.661 1.867-2.623 3.271-5.371 3.271-5.371s7.852-9.379 5.235-9.597c-2.22-.185-6.161 4.639-8.506 5.577-.419.168-.794.227-1.091.094-1.315-.585-.46-2.643 1.091-4.92a38.362 38.362 0 012.617-3.368c2.835-3.489 8.942-10.032 4.798-10.251-.828 0-4.277 1.837-7.415 4.179-1.821 1.359-3.54 2.886-4.58 4.327-2.705 3.745-5.978 10.65-6.842 16.013-7.727-.85-15.884-.368-23.692.999-8.724 1.527-16.794 3.708-24.645 4.798-7.634 1.091-15.049 1.091-22.246-.654-4.587-1.112-9.082-2.704-13.549-4.589.325.977.58 1.989.681 3.062.283 3.475-.635 9.35-2.179 16.231" clip-rule="evenodd"/>
  <path fill="#0B4870" fill-rule="evenodd" d="M300.026 575.808c-1.154 3.909-3.071 15.202-5.184 29.646-2.554 17.442-5.398 39.472-7.547 58.656-.737-23.145-1.928-48.39-2.735-62.904-.283-5.104-.521-8.899-.673-10.785 0-.873-.219-1.747-.437-2.838 3.071-16.843 5.03-41.907 6.317-66.263l.065-1.217c.07-1.343.135-2.682.201-4.019a601.853 601.853 0 002.159 3.79 536.742 536.742 0 006.126 10.408 462.929 462.929 0 002.362 3.867c6.644 10.715 7.584 24.163 2.033 35.382-.098.201-.185.408-.288.604-.063.129-.122.271-.185.402-.807 1.646-1.608 3.45-2.214 5.271M286.504 676.57c.02-.013.033-.03.05-.046 1.828 3.819 5.067 8.12 8.366 9.291.103.037.205.103.308.133 7.199-18.492 16.512-45.38 23.768-67.017 5.494-16.386 9.811-29.764 11.128-34.181.072-.233.139-.48.211-.715 1.59-5.213 3.141-10.923 4.19-16.504.055-.294.127-.591.179-.883 1.799-3.78 2.34-10.545 2.037-19.014-.268-7.426-1.191-16.168-2.523-25.426a501.946 501.946 0 00-.685-4.582 514.507 514.507 0 00-2.129-12.657 632.016 632.016 0 00-2.207-11.552 693.7 693.7 0 00-3.439-16.179c-3.023-13.433-6.013-24.863-8.044-31.319a90.247 90.247 0 00-.894-2.715c-1.058-2.925-2.441-5.754-4.037-8.447-39.716 10.187-68.667-5.329-76.084-9.944-2.969 4.428-5.311 9.348-6.683 14.463-1.145 4.12-.364 14.488 1.708 28.167 1.455 9.612 3.546 20.851 6.063 32.728 4.146 19.566 9.439 40.833 14.912 59.28a63.152 63.152 0 011.84 8.383 66.19 66.19 0 01.672 6.384 70.963 70.963 0 01-.768 14.676c-1.09 6.761-1.308 13.956-.872 19.193.654 8.07 9.596 40.564 18.102 68.701.129.511.417.927.801 1.202.27.192.582.325.944.325 4.58 1.09 8.942.87 13.086-1.745" clip-rule="evenodd"/>
  <path fill="#FDB32A" fill-rule="evenodd" d="M312.783 434.758c.907-.232 1.81-.454 2.728-.714 1.527-8.944-3.053-31.188-8.942-45.146-3.489-8.072-4.362-17.012-2.399-25.52.857-4.142 2.013-8.874 3.309-13.836 2.499-8.275 5.003-17.21 6.726-24.892 1.544-6.883 2.462-12.757 2.179-16.231-.101-1.073-.356-2.085-.681-3.064-1.315-3.965-4.338-7.027-8.211-8.373-1.385-.482-2.857-.776-4.412-.776h-16.227l.087 3.053-20.501-2.181.255-.872H256.406c-6.353 0-11.742 4.621-12.549 10.97-.068.31-.124.624-.17.94.405-.264.809-.526 1.16-.787.436-.437 1.091-.657 1.527-1.091l1.308-.872.437-.436c3.271-2.62 8.069-1.963 10.686 1.308 2.399 3.272 1.963 7.852-1.308 10.469-.873.654-1.527 1.09-2.181 1.745l-1.963 1.306c-1.309.875-2.617 1.745-3.926 2.401-1.575.919-3.239 1.752-4.925 2.559 1.233 14.133 3.649 31.746 5.143 42.806a40.67 40.67 0 01.491 7.638c-.129 4.364-.944 8.744-2.454 12.861l-12.868 35.553s.659.475 1.885 1.236c7.417 4.617 36.368 20.133 76.084 9.946" clip-rule="evenodd"/>
  <path fill="#B97A59" fill-rule="evenodd" d="M282.578 292.061c-4.798 0-8.506-7.416-11.559-10.687l.187-.663-4.512 15.494-.255.872 20.501 2.181-.087-3.053-.153-5.44c-1.302.862-2.604 1.296-4.122 1.296" clip-rule="evenodd"/>
  <path fill="#AA6B4F" fill-rule="evenodd" d="M282.578 292.061c1.518 0 2.82-.434 4.122-1.295l.022-.013-.111-3.715c-4.336-.034-8.899-2.063-15.128-7.312l-.277.985-.187.663c3.053 3.272 6.761 10.687 11.559 10.687" clip-rule="evenodd"/>
  <path fill="#B97A59" fill-rule="evenodd" d="M286.611 287.038c.037 0 .074.006.111.006 3.49 0 9.161-11.341 10.905-20.065.404-1.784.672-3.568.855-5.317-3.04-4.005-4.682-8.288-5.548-11.601-1.817 2.303-5.525 4.96-13.627 8.848-8.744 4.142-14.257 5.191-18.296 6.474.889 1.997 2.128 3.592 3.406 3.93 1.023 3.485 3.296 7.271 6.166 9.661.31.271.598.496.901.751 6.229 5.249 10.791 7.278 15.127 7.313M182.482 325.113a73.402 73.402 0 004.351 1.843c11.341 4.362 23.991 6.109 36.422 4.362 6.107-1.09 12.214-2.615 17.885-5.016a235.245 235.245 0 003.363-1.586c1.686-.807 3.35-1.64 4.924-2.556 1.309-.656 2.617-1.529 3.926-2.401.654-.436 1.309-.87 1.963-1.309.654-.654 1.309-1.09 2.181-1.744 3.271-2.618 3.708-7.198 1.309-10.469-2.618-3.272-7.416-3.926-10.687-1.309l-.436.436-1.309.873c-.436.436-1.091.654-1.527 1.09-.349.264-.752.526-1.16.79-.606.39-1.241.781-1.893 1.173-2.181 1.309-4.58 2.399-6.761 3.49-4.58 1.963-9.379 3.707-14.395 4.58-5.016.872-10.032 1.308-15.049 1.09-5.016-.218-10.032-1.308-15.049-2.617-3.847-1.086-7.596-2.565-11.251-4.323-5.876-2.828-11.505-6.39-16.883-10.289-.635-.476-1.233-.997-1.856-1.484-5.898-4.593-11.438-9.65-16.772-15.099.102-.146.205-.277.307-.429 2.181-3.272-5.016-12.868-5.016-12.868s-.334-.785-.844-1.889l-10.499 9.804c2.253 2.726 4.859 5.286 7.417 6.916 1.629 1.086 2.944 1.542 4.076 1.561 5.265 7.119 11.167 13.97 17.734 20.031.319.285.646.562.966.846 4.074 3.609 8.343 7.025 12.992 10.058 3.708 2.417 7.536 4.591 11.571 6.445" clip-rule="evenodd"/>
  <path fill="#0B4870" fill-rule="evenodd" d="M302.861 731.53c-11.559.872-21.81-5.671-29.225-15.485-.258-.345-.622-.476-.988-.506-.565-.048-1.147.196-1.411.724-1.091 2.181-2.618 5.018-3.272 6.109-.654 1.306-.218 3.051.873 3.926 0 0 .83 1.018 3.733 2.837-.527 2.159.578 4.487 2.81 5.232l.628.216h31.083c-1.202-1.271-2.669-2.394-4.231-3.053" clip-rule="evenodd"/>
  <path fill="#C5D6F1" fill-rule="evenodd" d="M57.282 366.869c-15.485 5.886-33.151-1.747-39.04-17.448-5.889-15.487 1.745-33.151 17.448-39.04 15.485-5.891 33.151 1.743 39.04 17.448 5.889 15.703-1.963 33.151-17.448 39.04zm100.76-115.92l60.852-56.815 15.703 15.483 15.703-15.919-12.432-12.434 4.798-5.668 12.868 11.559 10.905-12.434-13.522-12.429 6.325-5.889-14.176-15.487-95.225 87.089-78.383 71.69c-11.995-7.634-27.262-9.597-41.657-4.144-23.99 9.16-35.986 35.986-26.608 59.977 9.379 23.991 35.987 35.987 59.978 26.608 23.99-9.16 35.986-35.986 26.608-59.977-.655-1.747-1.527-3.492-2.4-5.234l40.347-37.671 10.497-9.801 19.819-18.504z" clip-rule="evenodd"/>
</svg>
